<?xml version="1.0" encoding="utf-8"?>
<!-- Generator: Adobe Illustrator 24.2.3, SVG Export Plug-In . SVG Version: 6.00 Build 0)  -->
<svg version="1.1" id="Layer_1" xmlns="http://www.w3.org/2000/svg" xmlns:xlink="http://www.w3.org/1999/xlink" x="0px" y="0px"
	 viewBox="0 0 500 78.3" style="enable-background:new 0 0 500 78.3;" xml:space="preserve">
<style type="text/css">
	.st0{fill:#19254D;}
	.st1{fill:#3971DE;}
	.st2{fill:#3BCCC2;}
</style>
<g id="XMLID_6202_">
	<g id="XMLID_6227_">
		<g id="XMLID_6228_">
			<g id="XMLID_6243_">
				<path id="XMLID_6263_" class="st0" d="M94.8,19.6H117c0.2,0,0.4,0.2,0.4,0.4v4.7c0,0.2-0.2,0.4-0.4,0.4h-16.6V34H114
					c0.2,0,0.4,0.2,0.4,0.4v4.7c0,0.2-0.2,0.4-0.4,0.4h-13.7v10.1H117c0.2,0,0.4,0.2,0.4,0.4v4.7c0,0.2-0.2,0.4-0.4,0.4H94.8
					c-0.2,0-0.4-0.2-0.4-0.4V20C94.4,19.8,94.6,19.6,94.8,19.6z"/>
				<path id="XMLID_6261_" class="st0" d="M158.9,30.5c1.6,1.7,2.4,4.1,2.4,7v17.3c0,0.2-0.2,0.4-0.4,0.4h-5.1
					c-0.2,0-0.4-0.2-0.4-0.4V39c0-1.8-0.5-3.2-1.4-4.3c-0.9-1-2.1-1.6-3.7-1.6c-1.5,0-2.7,0.5-3.6,1.5c-0.9,1-1.4,2.4-1.4,4.1v16
					c0,0.2-0.2,0.4-0.4,0.4h-5.1c-0.2,0-0.4-0.2-0.4-0.4l0-15.7c0-1.8-0.5-3.2-1.4-4.3c-0.9-1.1-2.2-1.6-3.7-1.6
					c-1.5,0-2.7,0.5-3.7,1.6c-0.9,1-1.4,2.4-1.4,4.1v16c0,0.2-0.2,0.4-0.4,0.4h-5.1c-0.2,0-0.4-0.2-0.4-0.4V28.9
					c0-0.2,0.2-0.4,0.4-0.4h4.4c0.2,0,0.4,0.2,0.4,0.4v2.4c0.9-1.1,2-1.9,3.3-2.6c1.3-0.6,2.8-0.9,4.4-0.9c1.8,0,3.4,0.4,4.7,1.1
					s2.4,1.8,3.1,3.1c0.8-1.3,2-2.3,3.4-3.1c1.4-0.7,3-1.1,4.7-1.1C155.1,27.8,157.3,28.7,158.9,30.5z"/>
				<path id="XMLID_6258_" class="st0" d="M174.4,48.6c1.2,1.2,2.8,1.8,4.8,1.8c1.4,0,2.7-0.3,3.8-1c1-0.6,1.7-1.4,2.3-2.5
					c0.1-0.2,0.3-0.3,0.5-0.2l5.1,1.5c0.2,0.1,0.4,0.3,0.3,0.6c-1,2.2-2.5,3.9-4.5,5.2c-2.1,1.3-4.5,2-7.1,2c-3.6,0-6.6-1.1-9.2-3.2
					c-0.5-0.4-0.9-0.8-1.3-1.3c-2.1-2.6-3.1-5.6-3.1-9.3c0-2.9,0.6-5.4,1.7-7.6c1.1-2.2,2.7-3.9,4.7-5c2-1.2,4.3-1.8,6.9-1.8
					c2.5,0,4.7,0.6,6.6,1.7c1.9,1.1,3.3,2.8,4.3,4.9c1,2.1,1.5,4.6,1.5,7.4c0,0.6,0,1,0,1.4c0,0.2-0.2,0.4-0.4,0.4h-18.9
					C172.5,45.7,173.2,47.4,174.4,48.6z M172.4,39h13.1c-0.3-2.1-0.9-3.6-1.9-4.6c-1-1-2.4-1.5-4.3-1.5
					C175.5,32.9,173.1,34.9,172.4,39z"/>
				<path id="XMLID_6256_" class="st0" d="M207.6,28.7c0.9-0.3,1.9-0.4,2.8-0.4c0.5,0,0.9,0,1.4,0.1c0.2,0,0.4,0.2,0.4,0.4v4.6
					c0,0.3-0.2,0.5-0.5,0.4c-0.4-0.1-0.9-0.1-1.4-0.1c-1.4,0-2.6,0.3-3.7,0.9c-1.2,0.7-2.1,1.6-2.6,2.8c-0.6,1.2-0.9,2.6-0.9,4.2
					v13.1c0,0.2-0.2,0.4-0.4,0.4h-5.1c-0.2,0-0.4-0.2-0.4-0.4V28.9c0-0.2,0.2-0.4,0.4-0.4h4.4c0.2,0,0.4,0.2,0.4,0.4v3.8
					c0.7-1.3,1.6-2.2,2.7-2.9C205.8,29.4,206.6,29,207.6,28.7z"/>
				<path id="XMLID_6253_" class="st0" d="M239,28.5c0.2,0,0.4,0.2,0.4,0.4v27.6c0,1.4-0.1,2.6-0.3,3.8c-0.6,2.5-2,4.4-4.1,5.7
					c-2.1,1.3-4.8,1.9-7.9,1.9c-2.2,0-4.3-0.5-6.2-1.5c-1.8-0.9-3.1-2.2-4.2-3.9c-0.1-0.2,0-0.5,0.2-0.6l4.8-2.3
					c0.2-0.1,0.4,0,0.5,0.2c0.5,0.8,1.1,1.3,1.9,1.8c0.9,0.5,1.9,0.7,3.1,0.7c1.9,0,3.5-0.5,4.6-1.5c1.2-1,1.7-2.4,1.7-4.3v-2.6
					c-1.9,1.4-4.2,2.1-6.9,2.1c-2.4,0-4.5-0.6-6.4-1.8c-1.9-1.2-3.3-2.9-4.3-5c-1-2.1-1.5-4.5-1.5-7.2c0-2.7,0.5-5.1,1.5-7.2
					c1-2.1,2.5-3.8,4.3-5c1.9-1.2,4.1-1.8,6.5-1.8c3,0,5.4,0.9,7.4,2.6v-1.5c0-0.2,0.2-0.4,0.4-0.4H239z M232.5,48.2
					c1.1-1.5,1.6-3.7,1.6-6.4c0-2.7-0.5-4.8-1.6-6.4c-1.1-1.6-2.7-2.3-4.9-2.3c-2.3,0-4,0.8-5.2,2.4c-1.2,1.6-1.8,3.7-1.8,6.3
					c0,2.6,0.6,4.7,1.7,6.3c1.2,1.6,2.8,2.4,5,2.4C229.8,50.6,231.5,49.8,232.5,48.2z"/>
				<path id="XMLID_6250_" class="st0" d="M253.3,48.6c1.2,1.2,2.8,1.8,4.8,1.8c1.4,0,2.7-0.3,3.8-1c1-0.6,1.7-1.4,2.3-2.5
					c0.1-0.2,0.3-0.3,0.5-0.2l5.1,1.5c0.2,0.1,0.4,0.3,0.3,0.6c-1,2.2-2.5,3.9-4.5,5.2c-2.1,1.3-4.5,2-7.1,2c-3.6,0-6.6-1.1-9.2-3.2
					c-0.5-0.4-0.9-0.8-1.3-1.3c-2.1-2.6-3.1-5.6-3.1-9.3c0-2.9,0.6-5.4,1.7-7.6c1.1-2.2,2.7-3.9,4.7-5c2-1.2,4.3-1.8,6.9-1.8
					c2.5,0,4.7,0.6,6.6,1.7c1.9,1.1,3.3,2.8,4.3,4.9c1,2.1,1.5,4.6,1.5,7.4c0,0.6,0,1,0,1.4c0,0.2-0.2,0.4-0.4,0.4h-18.9
					C251.5,45.7,252.2,47.4,253.3,48.6z M251.4,39h13.1c-0.3-2.1-0.9-3.6-1.9-4.6c-1-1-2.4-1.5-4.3-1.5
					C254.4,32.9,252.1,34.9,251.4,39z"/>
				<path id="XMLID_6248_" class="st0" d="M297.7,31.8c1.4,2.7,2.1,5.5,2.1,8.4v14.5c0,0.2-0.2,0.4-0.4,0.4h-5.2
					c-0.2,0-0.4-0.2-0.4-0.4V42.3c0-6-2.1-9-6.3-9c-1.8,0-3.3,0.6-4.4,1.8c-1.2,1.2-1.8,3.3-1.8,6.3v13.3c0,0.2-0.2,0.4-0.4,0.4
					h-5.2c-0.2,0-0.4-0.2-0.4-0.4V28.9c0-0.2,0.2-0.4,0.4-0.4h4.5c0.2,0,0.4,0.2,0.4,0.4v2.5c2-2.5,4.9-3.7,8.7-3.7
					C293.5,27.7,296.3,29.1,297.7,31.8z"/>
				<path id="XMLID_6246_" class="st0" d="M310.5,54.1c-2-1.2-3.5-2.9-4.5-5c-1-2.1-1.6-4.5-1.6-7.2c0-2.7,0.5-5.2,1.6-7.3
					c1.1-2.1,2.6-3.8,4.6-5c2-1.2,4.3-1.8,6.9-1.8c3,0,5.6,0.8,7.7,2.3c2,1.4,3.3,3.4,4,5.8c0.1,0.2-0.1,0.5-0.3,0.5l-5.1,1.4
					c-0.2,0.1-0.4-0.1-0.5-0.3c-0.4-1.2-1.2-2.2-2.1-3c-1.1-0.8-2.3-1.2-3.7-1.2c-2.2,0-3.9,0.8-5.1,2.3c-1.1,1.5-1.7,3.6-1.7,6.2
					c0,2.6,0.6,4.7,1.7,6.2c1.2,1.5,2.8,2.3,5,2.3c1.5,0,2.8-0.3,3.7-1c0.8-0.6,1.5-1.6,2-2.8c0.1-0.2,0.3-0.3,0.5-0.3l5.3,1.2
					c0.2,0.1,0.4,0.3,0.3,0.6c-0.8,2.5-2.2,4.4-4.2,5.8c-2.1,1.5-4.6,2.2-7.5,2.2C314.8,55.9,312.4,55.3,310.5,54.1z"/>
				<path id="XMLID_6244_" class="st0" d="M351.6,28.5h5.1c0.3,0,0.5,0.3,0.4,0.6l-14.6,37.7c-0.1,0.2-0.2,0.3-0.4,0.3h-4.7
					c-0.3,0-0.5-0.3-0.4-0.6l4.2-11.4l-10.5-26c-0.1-0.3,0.1-0.6,0.4-0.6h5.3c0.2,0,0.3,0.1,0.4,0.3l7.4,18.8l7.1-18.8
					C351.3,28.6,351.4,28.5,351.6,28.5z"/>
			</g>
			<g id="XMLID_6229_">
				<path id="XMLID_6241_" class="st1" d="M373.8,53.1c-2.4-1.8-4-4.1-4.7-7.1c-0.1-0.2,0.1-0.5,0.3-0.5l3-0.5
					c0.2,0,0.4,0.1,0.5,0.3c0.6,2.1,1.8,3.8,3.6,5.1c1.9,1.3,4.2,2,6.8,2c2.7,0,4.9-0.6,6.6-1.9c1.7-1.3,2.6-2.9,2.6-4.9
					c0-1.6-0.5-2.9-1.5-3.8c-1-0.9-2.3-1.5-4-2l-9-2.7c-5.1-1.5-7.6-4.4-7.6-8.6c0-2,0.5-3.7,1.6-5.2c1.1-1.5,2.5-2.6,4.3-3.4
					c1.8-0.8,3.9-1.2,6.3-1.2c3.5,0,6.5,1,8.9,2.8c2.3,1.8,3.8,4.2,4.4,7.2c0.1,0.2-0.1,0.5-0.3,0.5l-3,0.5c-0.2,0-0.4-0.1-0.5-0.3
					c-0.4-2.1-1.5-3.8-3.1-5.1c-1.8-1.4-3.9-2.1-6.4-2.1c-1.6,0-3,0.3-4.3,0.8c-1.3,0.5-2.3,1.3-3,2.2c-0.7,0.9-1.1,2.1-1,3.2
					c0,1.5,0.6,2.7,1.8,3.5c1.2,0.8,2.7,1.5,4.6,2l7,2c1.5,0.4,2.8,0.9,4,1.5c1.2,0.6,2.3,1.5,3.2,2.8c1,1.3,1.4,2.9,1.4,5
					c0,2.2-0.6,4.1-1.7,5.6c-1.1,1.6-2.7,2.8-4.6,3.6c-2,0.8-4.2,1.2-6.7,1.2C379.5,55.9,376.3,55,373.8,53.1z"/>
				<path id="XMLID_6239_" class="st1" d="M419.7,29.7c1.6,1.2,2.8,2.8,3.5,4.7c0.7,1.9,1.1,4,1.1,6.1v14.3c0,0.2-0.2,0.4-0.4,0.4
					H421c-0.2,0-0.4-0.2-0.4-0.4V41.5c0-3.1-0.6-5.6-1.9-7.5c-1.3-1.8-3.2-2.8-5.9-2.8c-2.5,0-4.5,0.8-5.8,2.5c-1.4,1.7-2,4.1-2,7.1
					v13.8c0,0.2-0.2,0.4-0.4,0.4h-2.8c-0.2,0-0.4-0.2-0.4-0.4V20c0-0.2,0.2-0.4,0.4-0.4h2.4c0.2,0,0.4,0.2,0.4,0.4v12.2
					c1-1.4,2.2-2.5,3.8-3.2c1.5-0.7,3.3-1.1,5.2-1.1C416.1,27.8,418.1,28.4,419.7,29.7z"/>
				<path id="XMLID_6236_" class="st1" d="M433,19L433,19c1,0,1.8,0.8,1.8,1.8v0.5c0,1-0.8,1.8-1.8,1.8l0,0c-1,0-1.8-0.8-1.8-1.8
					v-0.5C431.1,19.8,432,19,433,19z M431.6,28.5h2.8c0.2,0,0.4,0.2,0.4,0.4v25.9c0,0.2-0.2,0.4-0.4,0.4h-2.8
					c-0.2,0-0.4-0.2-0.4-0.4V28.9C431.1,28.7,431.3,28.5,431.6,28.5z"/>
				<path id="XMLID_6234_" class="st1" d="M449.5,22.9c-0.7,0.7-1,1.7-1,3.2v2.4h6.9c0.2,0,0.4,0.2,0.4,0.4v2.3
					c0,0.2-0.2,0.4-0.4,0.4h-6.9v23.2c0,0.2-0.2,0.4-0.4,0.4h-2.8c-0.2,0-0.4-0.2-0.4-0.4V31.6h-4.2c-0.2,0-0.4-0.2-0.4-0.4v-2.3
					c0-0.2,0.2-0.4,0.4-0.4h4.2v-2c0-1.3,0.1-2.3,0.3-3.3c0.2-0.9,0.7-1.7,1.3-2.5c0.7-0.8,1.6-1.3,2.5-1.6c1-0.2,2.1-0.4,3.4-0.4h3
					c0.2,0,0.4,0.2,0.4,0.4v2.2c0,0.2-0.2,0.4-0.4,0.4h-2.7C451.2,21.9,450.1,22.2,449.5,22.9z"/>
				<path id="XMLID_6232_" class="st1" d="M466.1,45.4c0,0.3,0,0.8,0,1.6c0,0.8,0,1.4,0.1,1.9c0.1,0.5,0.2,0.9,0.4,1.3
					c0.8,1.4,2.3,2.1,4.5,2.1c0.8,0,1.6-0.1,2.6-0.2c0.3,0,0.5,0.2,0.5,0.4v2.3c0,0.2-0.2,0.4-0.4,0.4c-1.2,0.2-2.3,0.3-3.3,0.3
					c-1.7,0-3.2-0.3-4.4-0.9c-1.3-0.6-2.2-1.5-2.8-2.7c-0.4-0.9-0.7-1.7-0.8-2.6c-0.1-0.8-0.1-2.1-0.1-4V31.6h-5.3
					c-0.2,0-0.4-0.2-0.4-0.4v-2.3c0-0.2,0.2-0.4,0.4-0.4h5.3v-7c0-0.2,0.2-0.4,0.4-0.4h2.8c0.2,0,0.4,0.2,0.4,0.4v7h7.7
					c0.2,0,0.4,0.2,0.4,0.4v2.3c0,0.2-0.2,0.4-0.4,0.4h-7.7V45.4z"/>
				<path id="XMLID_6230_" class="st1" d="M481.8,53.8c-1.9-1.3-3.1-3-3.6-5.2c-0.1-0.2,0.1-0.5,0.3-0.5l2.9-0.5
					c0.2,0,0.4,0.1,0.5,0.3c0.4,1.4,1.3,2.5,2.6,3.3c1.4,0.9,3.2,1.3,5.2,1.3c2,0,3.6-0.4,4.8-1.3c1.2-0.8,1.8-2,1.8-3.5
					c0-0.9-0.2-1.5-0.6-2c-0.4-0.5-1.1-1-2.2-1.4c-1.1-0.4-2.8-1-5.1-1.6c-2.5-0.7-4.4-1.3-5.7-2c-1.4-0.7-2.3-1.4-2.9-2.2
					c-0.6-0.8-0.8-1.9-0.8-3.2c0-2.3,0.9-4.1,2.8-5.5c1.9-1.4,4.3-2.1,7.3-2.1c3,0,5.5,0.7,7.5,2.1c1.9,1.3,3,3.1,3.3,5.2
					c0,0.2-0.1,0.4-0.3,0.5l-2.9,0.5c-0.2,0-0.4-0.1-0.5-0.3c-0.3-1.4-1.1-2.5-2.3-3.4c-1.4-0.9-3.1-1.4-5.2-1.4
					c-1.8,0-3.3,0.4-4.4,1.1c-1.1,0.8-1.7,1.7-1.7,3c0,0.8,0.2,1.4,0.6,1.9c0.4,0.5,1.2,0.9,2.3,1.4c1.1,0.4,2.7,0.9,4.9,1.5
					c2.5,0.6,4.4,1.3,5.8,2c1.4,0.7,2.3,1.5,2.9,2.4c0.6,0.9,0.9,2.1,0.9,3.5c0,2.5-0.9,4.5-2.8,6c-1.9,1.4-4.4,2.2-7.7,2.2
					C486.4,55.9,483.8,55.2,481.8,53.8z"/>
			</g>
		</g>
	</g>
	<g id="XMLID_6203_">
		<g id="XMLID_6205_">
			<g id="XMLID_6224_">
				<g id="XMLID_6225_">
					<path id="XMLID_6226_" class="st0" d="M22.7,59.7L20,62.5l-2.7,2.7L5.1,77.4c-0.6,0.6-1.4,0.9-2.1,0.9c-0.8,0-1.5-0.3-2.1-0.9
						c-1.2-1.2-1.2-3.1,0-4.3l12.2-12.3l2.7-2.7l2.7-2.8C19.8,56.9,21.1,58.4,22.7,59.7z"/>
				</g>
			</g>
			<g id="XMLID_6218_">
				<path id="XMLID_6220_" class="st0" d="M42.6,7.6c-0.6,0-1.3,0-1.9,0.1c-4,0.2-7.7,1.2-11.1,2.8c0,0,0,0,0,0
					c-10.1,4.8-17.1,15-17.1,26.8c0,5.3,1.4,10.3,3.9,14.6c0,0,0,0,0,0c0.3,0.6,0.7,1.2,1.1,1.7c0,0,0,0,0,0
					c0.4,0.6,0.8,1.1,1.2,1.6v0c1.2,1.6,2.6,3.1,4.1,4.4c0,0,0,0,0.1,0c0.5,0.4,1,0.8,1.5,1.2c0,0,0,0,0.1,0c0.5,0.4,1,0.7,1.6,1.1
					c0,0,0,0,0.1,0c4.8,3.1,10.5,5,16.7,5c16.7,0,30.2-13.3,30.2-29.8C72.8,21,59.3,7.6,42.6,7.6z M42.6,61.8
					c-6.5,0-12.8-2.7-17.3-7.3c-6.2-6.4-8.2-15.8-5.7-24.2c2.8-9.3,12.3-16.4,22-16.7c0.3,0,0.6,0,1,0c13.3,0,24.1,10.8,24.1,24.1
					S55.9,61.8,42.6,61.8z"/>
			</g>
			<g id="XMLID_6206_">
				<path id="XMLID_6216_" class="st2" d="M55.4,37.7c0,0.5,0,1.1-0.1,1.6h-3.8c0.1-0.5,0.1-1.1,0.1-1.6c0-0.8-0.1-1.5-0.3-2.2
					c-0.8-3.3-3.5-5.9-6.8-6.6c0,0,0,0,0,0c-0.6-0.1-1.2-0.2-1.9-0.2s-1.3,0.1-1.9,0.2v-3.8c0.6-0.1,1.3-0.1,1.9-0.1s1.3,0,1.9,0.1
					h0c5.4,0.8,9.7,5,10.7,10.4C55.3,36.2,55.4,36.9,55.4,37.7z"/>
				<path id="XMLID_6215_" class="st0" d="M44.5,21.2V25c-0.6-0.1-1.3-0.1-1.9-0.1s-1.3,0-1.9,0.1v-3.9c0.6-0.1,1.3-0.1,1.9-0.1
					S43.9,21.1,44.5,21.2z"/>
				<path id="XMLID_6214_" class="st0" d="M44.5,28.9v12.5c-0.3,0.1-0.6,0.2-0.9,0.3c-0.3,0.1-0.6,0.1-1,0.1c-0.3,0-0.7,0-1-0.1
					c-0.3-0.1-0.6-0.2-0.9-0.3V28.9c0.6-0.1,1.3-0.2,1.9-0.2S43.9,28.7,44.5,28.9C44.5,28.9,44.5,28.9,44.5,28.9z"/>
				<path id="XMLID_6213_" class="st0" d="M51.6,37.7c0,0.5,0,1.1-0.1,1.6H38.6c-0.3-0.6-0.4-1.2-0.4-1.9c0-0.7,0.1-1.3,0.4-1.9
					h12.7C51.5,36.2,51.6,36.9,51.6,37.7z"/>
				<path id="XMLID_6212_" class="st0" d="M59.2,37.7c0,0.5,0,1.1-0.1,1.6h-3.9c0.1-0.5,0.1-1.1,0.1-1.6c0-0.8-0.1-1.5-0.2-2.2h3.9
					C59.2,36.2,59.2,36.9,59.2,37.7z"/>
				<path id="XMLID_6211_" class="st2" d="M63,37.3C63,37.3,63,37.3,63,37.3l0,0.1c0,0,0,0,0,0.1v0.1c0,0,0,0,0,0c0,0.1,0,0.1,0,0.2
					c0,0.1,0,0.2-0.1,0.3c0,0,0,0,0,0.1c0,0,0,0.1-0.1,0.1c0,0-0.1,0.1-0.1,0.1c-0.1,0.1-0.1,0.2-0.2,0.3c-0.1,0.1-0.2,0.2-0.3,0.2
					c0,0-0.1,0.1-0.1,0.1c-0.2,0.1-0.3,0.2-0.5,0.2c0,0-0.1,0-0.1,0c-0.1,0-0.2,0-0.3,0h-2c0.1-0.5,0.1-1.1,0.1-1.6
					c0-0.7,0-1.5-0.1-2.2c-1-7.5-7-13.4-14.6-14.3h0c-0.6-0.1-1.2-0.1-1.9-0.1c-0.6,0-1.3,0-1.9,0.1v-2c0-1.1,0.8-1.9,1.9-1.9
					c0,0,0,0,0,0h0.2c0,0,0,0,0,0c0.6,0,1.2,0,1.7,0.1c9.6,0.9,17.4,8.5,18.4,18.1c0,0.2,0,0.4,0,0.6c0,0.2,0,0.4,0,0.5
					c0,0.2,0,0.4,0,0.6c0,0,0,0,0,0s0,0,0,0V37.3C63,37.3,63,37.3,63,37.3z"/>
				<path id="XMLID_6210_" class="st0" d="M63,37.4L63,37.4C63,37.4,63,37.4,63,37.4c0,0.1,0,0.1,0,0.1s0,0,0,0.1L63,37.4
					C63,37.3,63,37.3,63,37.4l0-0.2C63,37.2,63,37.3,63,37.4z"/>
				<path id="XMLID_6209_" class="st0" d="M47.1,37.4c0,0.7-0.1,1.3-0.4,1.9c-0.4,0.9-1.2,1.7-2.1,2.1c-0.3,0.1-0.6,0.2-0.9,0.3
					c-0.3,0.1-0.6,0.1-1,0.1c-0.3,0-0.7,0-1-0.1c-0.3-0.1-0.6-0.2-0.9-0.3c0,0,0,0,0,0c-0.9-0.4-1.6-1.2-2.1-2.1
					c-0.3-0.6-0.4-1.2-0.4-1.9c0-0.7,0.1-1.3,0.4-1.9c0.4-0.9,1.2-1.6,2.1-2.1c0,0,0,0,0,0c0.6-0.3,1.2-0.4,1.9-0.4
					c0.7,0,1.3,0.1,1.9,0.4c0,0,0,0,0,0h0c0.9,0.4,1.7,1.2,2.1,2.1C46.9,36,47.1,36.7,47.1,37.4z"/>
				<path id="XMLID_6208_" class="st0" d="M44.5,19.2v22.2c-0.3,0.1-0.6,0.2-0.9,0.3c-0.3,0.1-0.6,0.1-1,0.1c-0.3,0-0.7,0-1-0.1
					c-0.3-0.1-0.7-0.2-1-0.3V19.2c0-1.1,0.9-1.9,1.9-1.9c0.1,0,0.1,0,0.2,0c0,0,0,0,0,0c0.4,0,0.8,0.3,1.1,0.6
					C44.3,18.2,44.5,18.7,44.5,19.2z"/>
				<path id="XMLID_6207_" class="st0" d="M63,37.4L63,37.4c0,0.1,0,0.2,0,0.2c0,0.1,0,0.1,0,0.2c0,0.1-0.1,0.2-0.1,0.3
					c0,0,0,0,0,0.1c0,0,0,0.1-0.1,0.1c0,0-0.1,0.1-0.1,0.1c-0.1,0.1-0.1,0.2-0.2,0.3c-0.1,0.1-0.2,0.2-0.3,0.2c0,0-0.1,0.1-0.1,0.1
					c-0.2,0.1-0.3,0.2-0.5,0.2c0,0-0.1,0-0.1,0c-0.1,0-0.2,0-0.3,0H38.9c-0.3-0.6-0.4-1.2-0.4-1.9c0-0.7,0.2-1.3,0.4-1.9h22.2
					C62.1,35.5,63,36.3,63,37.4C63,37.3,63,37.3,63,37.4C63,37.3,63,37.3,63,37.4z"/>
			</g>
		</g>
		<path id="XMLID_6204_" class="st1" d="M80.5,37.4c0,20.7-17,37.4-37.9,37.4c-7.4,0-14.3-2.1-20.1-5.7c-0.1-0.1-0.3-0.2-0.4-0.3
			c-0.4-0.4-0.7-0.9-0.7-1.5c0-1,0.9-1.9,1.9-1.9c0.3,0,0.6,0.1,0.9,0.2c0.1,0,0.1,0.1,0.2,0.1c5.3,3.3,11.5,5.2,18.2,5.2
			c18.8,0,34.1-15.1,34.1-33.6c0-18.5-15.3-33.6-34.1-33.6C23.8,3.8,8.5,18.9,8.5,37.4c0,5.8,1.5,11.3,4.2,16.1
			c0.1,0.1,0.1,0.2,0.2,0.3C13,54,13,54.3,13,54.5c0,1-0.9,1.9-1.9,1.9c-0.8,0-1.5-0.5-1.8-1.2C6.4,50,4.7,43.9,4.7,37.4
			C4.7,16.7,21.7,0,42.6,0C63.5,0,80.5,16.7,80.5,37.4z"/>
	</g>
</g>
</svg>
